<?xml version="1.0" encoding="UTF-8" standalone="no"?>
<svg
   id="Books"
   viewBox="0 0 375 69.000001"
   version="1.1"
   sodipodi:docname="book-4.svg"
   inkscape:version="1.1.1 (c3084ef, 2021-09-22)"
   width="375"
   height="69"
   xmlns:inkscape="http://www.inkscape.org/namespaces/inkscape"
   xmlns:sodipodi="http://sodipodi.sourceforge.net/DTD/sodipodi-0.dtd"
   xmlns:xlink="http://www.w3.org/1999/xlink"
   xmlns="http://www.w3.org/2000/svg"
   xmlns:svg="http://www.w3.org/2000/svg"
   xmlns:rdf="http://www.w3.org/1999/02/22-rdf-syntax-ns#"
   xmlns:cc="http://creativecommons.org/ns#"
   xmlns:dc="http://purl.org/dc/elements/1.1/">
  <sodipodi:namedview
     id="namedview83"
     pagecolor="#ffffff"
     bordercolor="#999999"
     borderopacity="1"
     inkscape:pageshadow="0"
     inkscape:pageopacity="0"
     inkscape:pagecheckerboard="0"
     showgrid="false"
     inkscape:zoom="1.3919079"
     inkscape:cx="125.36749"
     inkscape:cy="-74.358367"
     inkscape:window-width="1296"
     inkscape:window-height="855"
     inkscape:window-x="0"
     inkscape:window-y="23"
     inkscape:window-maximized="0"
     inkscape:current-layer="Books"
     fit-margin-top="0"
     fit-margin-left="0"
     fit-margin-right="0"
     fit-margin-bottom="0" />
  <defs
     id="defs19">
    <style
       id="style2">.cls-1{fill:#f4f4f4;}.cls-2{fill:#4b46bd;}.cls-3{fill:url(#linear-gradient);}.cls-4{fill:url(#linear-gradient-2);}.cls-5{fill:#5accec;}.cls-6{fill:#f2f2f2;}.cls-7{fill:#f8246a;}.cls-8{fill:url(#linear-gradient-3);}.cls-9{fill:url(#linear-gradient-4);}.cls-10{fill:url(#linear-gradient-5);}.cls-11{fill:url(#linear-gradient-6);}.cls-12{fill:url(#linear-gradient-7);}</style>
    <linearGradient
       id="linear-gradient"
       x1="893"
       y1="636.5"
       x2="1268"
       y2="636.5"
       gradientUnits="userSpaceOnUse">
      <stop
         offset="0"
         stop-color="#4b46bd"
         id="stop4" />
      <stop
         offset="1"
         stop-color="#5cd4ee"
         id="stop6" />
    </linearGradient>
    <linearGradient
       id="linear-gradient-2"
       x1="906.28003"
       y1="682.21002"
       x2="1289.46"
       y2="682.21002"
       gradientUnits="userSpaceOnUse">
      <stop
         offset="0"
         stop-color="#f71f68"
         id="stop9" />
      <stop
         offset="1"
         stop-color="#f9c448"
         id="stop11" />
    </linearGradient>
    <linearGradient
       id="linear-gradient-3"
       x1="516.16998"
       y1="254.44"
       x2="725.28003"
       y2="-6.4699998"
       xlink:href="#linear-gradient" />
    <linearGradient
       id="linear-gradient-4"
       x1="-52.830002"
       y1="252.44"
       x2="156.28"
       y2="-8.4700003"
       xlink:href="#linear-gradient" />
    <linearGradient
       id="linear-gradient-5"
       x1="1383.88"
       y1="695.65997"
       x2="1579.74"
       y2="451.28"
       gradientTransform="matrix(0.91,0,0,0.74,160.47,168.83)"
       xlink:href="#linear-gradient" />
    <linearGradient
       id="linear-gradient-6"
       x1="577.06"
       y1="263.67999"
       x2="758.91998"
       y2="36.77"
       xlink:href="#linear-gradient-2" />
    <linearGradient
       id="linear-gradient-7"
       x1="1.39"
       y1="254.75"
       x2="203.69"
       y2="2.3399999"
       xlink:href="#linear-gradient-2" />
    <linearGradient
       inkscape:collect="always"
       xlink:href="#linear-gradient"
       id="linearGradient4338"
       gradientUnits="userSpaceOnUse"
       x1="893"
       y1="636.5"
       x2="1268"
       y2="636.5" />
    <linearGradient
       inkscape:collect="always"
       xlink:href="#linear-gradient"
       id="linearGradient4340"
       gradientUnits="userSpaceOnUse"
       x1="893"
       y1="636.5"
       x2="1268"
       y2="636.5" />
  </defs>
  <title
     id="title21">Books</title>
  <g
     id="Files"
     transform="translate(-147,-211)">
    <rect
       class="cls-1"
       x="365"
       y="222"
       width="154"
       height="5"
       rx="2.5"
       ry="2.5"
       id="rect23" />
    <rect
       class="cls-1"
       x="365"
       y="231"
       width="154"
       height="5"
       rx="2.5"
       ry="2.5"
       id="rect25" />
    <rect
       class="cls-1"
       x="365"
       y="240"
       width="154"
       height="5"
       rx="2.5"
       ry="2.5"
       id="rect27" />
  </g>
  <g
     id="book1"
     transform="translate(-147,-211)">
    <path
       class="cls-2"
       d="M 911.9,615.21"
       transform="translate(-746,-403)"
       id="path36" />
    <path
       class="cls-3"
       d="m 913.33,615.41 c 0,0 -20.33,1.59 -20.33,21.59 0,20 21,21 21,21 l 354,1 v -6 h -158 c 0,0 -5,1 -4,-7 v -21 a 4.52,4.52 0 0 1 4.31,-4.72 h 0.45 C 1117.85,620.2 1266,622 1266,622 v -8 z"
       transform="translate(-746,-403)"
       id="path38"
       style="fill:url(#linearGradient4338)" />
    <line
       class="cls-2"
       x1="362"
       y1="221"
       x2="515"
       y2="221.72"
       id="line40" />
    <line
       class="cls-2"
       x1="362"
       y1="225"
       x2="515"
       y2="225.72"
       id="line42" />
    <line
       class="cls-2"
       x1="362"
       y1="229"
       x2="515"
       y2="229.72"
       id="line44" />
    <line
       class="cls-2"
       x1="362"
       y1="233"
       x2="515"
       y2="233.72"
       id="line46" />
    <line
       class="cls-2"
       x1="362"
       y1="238"
       x2="515"
       y2="238.72"
       id="line48" />
    <line
       class="cls-2"
       x1="362"
       y1="243"
       x2="515"
       y2="243.72"
       id="line50" />
  </g>
  <g
     id="book2"
     transform="translate(-147,-211)">
    <path
       class="cls-7"
       d="m 1132.3,625 h 12 a 17.8,17.8 0 0 1 7,10 c 2,7 0,9 4,17 2.36,4.71 5.13,7.83 7,11 0.39,0.67 0.9,5.23 1,6 l 1,12 -5,-3 -5,5 c 0,0 0,-16 -2,-19 -2,-3 -9.89,-14 -9,-22 1,-9 -2,-12 -11,-17 z"
       transform="translate(-746,-403)"
       id="path69" />
  </g>
  <metadata
     id="metadata3428">
    <rdf:RDF>
      <cc:Work
         rdf:about="">
        <dc:title>Books</dc:title>
      </cc:Work>
    </rdf:RDF>
  </metadata>
  <g
     id="g4298"
     transform="translate(-147,-211)">
    <rect
       class="cls-1"
       x="365"
       y="222"
       width="154"
       height="5"
       rx="2.5"
       ry="2.5"
       id="rect4292" />
    <rect
       class="cls-1"
       x="365"
       y="231"
       width="154"
       height="5"
       rx="2.5"
       ry="2.5"
       id="rect4294" />
    <rect
       class="cls-1"
       x="365"
       y="240"
       width="154"
       height="5"
       rx="2.5"
       ry="2.5"
       id="rect4296" />
  </g>
  <g
     id="g4316"
     transform="translate(-147,-211)">
    <path
       class="cls-2"
       d="M 911.9,615.21"
       transform="translate(-746,-403)"
       id="path4300" />
    <path
       class="cls-3"
       d="m 913.33,615.41 c 0,0 -20.33,1.59 -20.33,21.59 0,20 21,21 21,21 l 354,1 v -6 h -158 c 0,0 -5,1 -4,-7 v -21 a 4.52,4.52 0 0 1 4.31,-4.72 h 0.45 C 1117.85,620.2 1266,622 1266,622 v -8 z"
       transform="translate(-746,-403)"
       id="path4302"
       style="fill:url(#linearGradient4340)" />
    <line
       class="cls-2"
       x1="362"
       y1="221"
       x2="515"
       y2="221.72"
       id="line4304" />
    <line
       class="cls-2"
       x1="362"
       y1="225"
       x2="515"
       y2="225.72"
       id="line4306" />
    <line
       class="cls-2"
       x1="362"
       y1="229"
       x2="515"
       y2="229.72"
       id="line4308" />
    <line
       class="cls-2"
       x1="362"
       y1="233"
       x2="515"
       y2="233.72"
       id="line4310" />
    <line
       class="cls-2"
       x1="362"
       y1="238"
       x2="515"
       y2="238.72"
       id="line4312" />
    <line
       class="cls-2"
       x1="362"
       y1="243"
       x2="515"
       y2="243.72"
       id="line4314" />
  </g>
  <g
     id="g4320"
     transform="translate(-147,-211)">
    <path
       class="cls-7"
       d="m 1132.3,625 h 12 a 17.8,17.8 0 0 1 7,10 c 2,7 0,9 4,17 2.36,4.71 5.13,7.83 7,11 0.39,0.67 0.9,5.23 1,6 l 1,12 -5,-3 -5,5 c 0,0 0,-16 -2,-19 -2,-3 -9.89,-14 -9,-22 1,-9 -2,-12 -11,-17 z"
       transform="translate(-746,-403)"
       id="path4318" />
  </g>
</svg>
